<svg width="32" height="32" viewBox="0 0 32 32" fill="none" xmlns="http://www.w3.org/2000/svg">
<circle cx="16" cy="16" r="16" fill="#CDE1F9"/>
<path d="M15.334 19.332H16.6673V15.332H15.334V19.332ZM16.0007 13.9987C16.1895 13.9987 16.348 13.9347 16.476 13.8067C16.604 13.6787 16.6678 13.5205 16.6673 13.332C16.6669 13.1436 16.6029 12.9854 16.4753 12.8574C16.3478 12.7294 16.1895 12.6654 16.0007 12.6654C15.8118 12.6654 15.6535 12.7294 15.526 12.8574C15.3984 12.9854 15.3344 13.1436 15.334 13.332C15.3335 13.5205 15.3975 13.6789 15.526 13.8074C15.6544 13.9358 15.8127 13.9996 16.0007 13.9987ZM16.0007 22.6654C15.0784 22.6654 14.2118 22.4903 13.4007 22.14C12.5895 21.7898 11.884 21.3149 11.284 20.7154C10.684 20.1158 10.2091 19.4103 9.85932 18.5987C9.50954 17.7871 9.33443 16.9205 9.33399 15.9987C9.33354 15.0769 9.50865 14.2103 9.85932 13.3987C10.21 12.5871 10.6849 11.8816 11.284 11.282C11.8831 10.6825 12.5887 10.2076 13.4007 9.85736C14.2127 9.50714 15.0793 9.33203 16.0007 9.33203C16.922 9.33203 17.7887 9.50714 18.6007 9.85736C19.4127 10.2076 20.1182 10.6825 20.7173 11.282C21.3164 11.8816 21.7915 12.5871 22.1427 13.3987C22.4938 14.2103 22.6687 15.0769 22.6673 15.9987C22.666 16.9205 22.4909 17.7871 22.142 18.5987C21.7931 19.4103 21.3182 20.1158 20.7173 20.7154C20.1164 21.3149 19.4109 21.79 18.6007 22.1407C17.7904 22.4914 16.9238 22.6663 16.0007 22.6654ZM16.0007 21.332C17.4895 21.332 18.7507 20.8154 19.784 19.782C20.8173 18.7487 21.334 17.4876 21.334 15.9987C21.334 14.5098 20.8173 13.2487 19.784 12.2154C18.7507 11.182 17.4895 10.6654 16.0007 10.6654C14.5118 10.6654 13.2507 11.182 12.2173 12.2154C11.184 13.2487 10.6673 14.5098 10.6673 15.9987C10.6673 17.4876 11.184 18.7487 12.2173 19.782C13.2507 20.8154 14.5118 21.332 16.0007 21.332Z" fill="#3793FF"/>
</svg>
