<svg width="56" height="56" viewBox="0 0 56 56" fill="none" xmlns="http://www.w3.org/2000/svg">
<circle cx="28" cy="28" r="28" fill="#DAEBFF"/>
<path d="M14.666 38.668V14.668H17.3327V30.1506L20.2393 27.244C20.4069 27.6616 20.6572 28.041 20.9752 28.3593C21.2933 28.6776 21.6725 28.9282 22.09 29.096L17.3327 33.8533V38.668H41.3327V41.3346H17.3327C16.6254 41.3346 15.9472 41.0537 15.4471 40.5536C14.947 40.0535 14.666 39.3752 14.666 38.668Z" fill="#3793FF"/>
<path fill-rule="evenodd" clip-rule="evenodd" d="M35.4487 28.1639C35.7334 28.5953 35.9139 29.0871 35.976 29.6002C36.038 30.1134 35.9798 30.634 35.806 31.1208C35.6322 31.6076 35.3476 32.0473 34.9747 32.4052C34.6017 32.7631 34.1506 33.0294 33.6571 33.1829C33.1635 33.3365 32.641 33.3732 32.1308 33.2901C31.6207 33.207 31.1368 33.0064 30.7175 32.7041C30.2982 32.4019 29.9549 32.0062 29.7148 31.5485C29.4747 31.0907 29.3443 30.5834 29.334 30.0666L25.582 28.4599C25.932 28.1401 26.2097 27.7493 26.3967 27.3136C26.5836 26.8779 26.6754 26.4073 26.666 25.9333L30.4167 27.5399C30.7987 27.1891 31.2576 26.9327 31.7566 26.7913C32.2556 26.6498 32.7807 26.6272 33.29 26.7253L35.2167 23.8359C35.462 24.2081 35.7794 24.5273 36.1502 24.7746C36.5209 25.022 36.9376 25.1924 37.3754 25.2759L35.4487 28.1639ZM33.3327 29.9999C33.3327 30.1767 33.2625 30.3463 33.1374 30.4713C33.0124 30.5964 32.8428 30.6666 32.666 30.6666C32.4892 30.6666 32.3197 30.5964 32.1946 30.4713C32.0696 30.3463 31.9994 30.1767 31.9994 29.9999C31.9994 29.8231 32.0696 29.6536 32.1946 29.5285C32.3197 29.4035 32.4892 29.3333 32.666 29.3333C32.8428 29.3333 33.0124 29.4035 33.1374 29.5285C33.2625 29.6536 33.3327 29.8231 33.3327 29.9999Z" fill="#3793FF"/>
<path fill-rule="evenodd" clip-rule="evenodd" d="M26.6654 25.9346C26.6477 25.0506 26.2796 24.2098 25.6419 23.5971C25.0043 22.9845 24.1494 22.6503 23.2654 22.668C22.3813 22.6856 21.5405 23.0538 20.9279 23.6914C20.3153 24.329 19.981 25.1839 19.9987 26.068C20.0164 26.952 20.3845 27.7928 21.0222 28.4055C21.6598 29.0181 22.5147 29.3523 23.3987 29.3346C24.2828 29.317 25.1236 28.9488 25.7362 28.3112C26.3488 27.6736 26.6831 26.8187 26.6654 25.9346ZM23.9987 26.0013C23.9987 26.1781 23.9285 26.3477 23.8035 26.4727C23.6784 26.5977 23.5089 26.668 23.332 26.668C23.1552 26.668 22.9857 26.5977 22.8606 26.4727C22.7356 26.3477 22.6654 26.1781 22.6654 26.0013C22.6654 25.8245 22.7356 25.6549 22.8606 25.5299C22.9857 25.4049 23.1552 25.3346 23.332 25.3346C23.5089 25.3346 23.6784 25.4049 23.8035 25.5299C23.9285 25.6549 23.9987 25.8245 23.9987 26.0013ZM37.9987 25.3346C38.8828 25.3346 39.7306 24.9834 40.3557 24.3583C40.9809 23.7332 41.332 22.8854 41.332 22.0013C41.332 21.1172 40.9809 20.2694 40.3557 19.6443C39.7306 19.0192 38.8828 18.668 37.9987 18.668C37.1147 18.668 36.2668 19.0192 35.6417 19.6443C35.0166 20.2694 34.6654 21.1172 34.6654 22.0013C34.6654 22.8854 35.0166 23.7332 35.6417 24.3583C36.2668 24.9834 37.1147 25.3346 37.9987 25.3346ZM37.9987 22.668C38.1755 22.668 38.3451 22.5977 38.4701 22.4727C38.5951 22.3477 38.6654 22.1781 38.6654 22.0013C38.6654 21.8245 38.5951 21.6549 38.4701 21.5299C38.3451 21.4049 38.1755 21.3346 37.9987 21.3346C37.8219 21.3346 37.6523 21.4049 37.5273 21.5299C37.4023 21.6549 37.332 21.8245 37.332 22.0013C37.332 22.1781 37.4023 22.3477 37.5273 22.4727C37.6523 22.5977 37.8219 22.668 37.9987 22.668Z" fill="#3793FF"/>
</svg>
