<svg width="56" height="56" viewBox="0 0 56 56" fill="none" xmlns="http://www.w3.org/2000/svg">
<circle cx="28" cy="28" r="28" fill="#DAEBFF"/>
<path d="M40.8801 24.5498C42.7841 31.6618 38.5641 38.9738 31.4508 40.8791C25.3201 42.5218 19.0454 39.6124 16.2068 34.2258C16.042 33.9128 16.0083 33.5472 16.113 33.2094C16.2178 32.8716 16.4525 32.5892 16.7654 32.4244C17.0784 32.2596 17.444 32.2259 17.7818 32.3307C18.1196 32.4355 18.402 32.6701 18.5668 32.9831C19.7093 35.1464 21.5608 36.8512 23.8109 37.8118C26.061 38.7723 28.5729 38.9301 30.9255 38.2589C33.2781 37.5876 35.3285 36.128 36.7329 34.1247C38.1373 32.1215 38.8104 29.6963 38.6393 27.2558C38.4683 24.8153 37.4635 22.5077 35.7933 20.7199C34.1232 18.9322 31.8893 17.7729 29.4661 17.4363C27.0428 17.0998 24.5775 17.6065 22.4834 18.8715C20.3893 20.1365 18.7937 22.0829 17.9641 24.3844L19.3734 24.0711C20.9548 23.7178 21.8561 25.8124 20.5121 26.7178L16.9481 29.1204C15.9908 29.7644 14.6548 29.0991 14.6641 27.8964C14.6874 24.9791 15.667 22.1498 17.4526 19.8426C19.2381 17.5354 21.7312 15.8775 24.5494 15.1231C31.6614 13.2138 38.9734 17.4351 40.8788 24.5471M28.0001 20.0004C28.3537 20.0004 28.6929 20.1409 28.9429 20.391C29.193 20.641 29.3334 20.9801 29.3334 21.3338V22.6671H32.0001C32.3537 22.6671 32.6929 22.8076 32.9429 23.0576C33.193 23.3077 33.3334 23.6468 33.3334 24.0004C33.3334 24.3541 33.193 24.6932 32.9429 24.9432C32.6929 25.1933 32.3537 25.3338 32.0001 25.3338H25.3334C25.1566 25.3338 24.9871 25.404 24.862 25.529C24.737 25.6541 24.6668 25.8236 24.6668 26.0004C24.6668 26.1772 24.737 26.3468 24.862 26.4718C24.9871 26.5969 25.1566 26.6671 25.3334 26.6671H30.6668C31.5508 26.6671 32.3987 27.0183 33.0238 27.6434C33.6489 28.2685 34.0001 29.1164 34.0001 30.0004C34.0001 30.8845 33.6489 31.7323 33.0238 32.3575C32.3987 32.9826 31.5508 33.3338 30.6668 33.3338H29.3334V34.6671C29.3334 35.0207 29.193 35.3599 28.9429 35.6099C28.6929 35.86 28.3537 36.0004 28.0001 36.0004C27.6465 36.0004 27.3074 35.86 27.0573 35.6099C26.8073 35.3599 26.6668 35.0207 26.6668 34.6671V33.3338H24.0001C23.6465 33.3338 23.3074 33.1933 23.0573 32.9432C22.8073 32.6932 22.6668 32.3541 22.6668 32.0004C22.6668 31.6468 22.8073 31.3077 23.0573 31.0576C23.3074 30.8076 23.6465 30.6671 24.0001 30.6671H30.6668C30.8436 30.6671 31.0132 30.5969 31.1382 30.4718C31.2632 30.3468 31.3334 30.1772 31.3334 30.0004C31.3334 29.8236 31.2632 29.6541 31.1382 29.529C31.0132 29.404 30.8436 29.3338 30.6668 29.3338H25.3334C24.4494 29.3338 23.6015 28.9826 22.9764 28.3575C22.3513 27.7323 22.0001 26.8845 22.0001 26.0004C22.0001 25.1164 22.3513 24.2685 22.9764 23.6434C23.6015 23.0183 24.4494 22.6671 25.3334 22.6671H26.6668V21.3338C26.6668 20.9801 26.8073 20.641 27.0573 20.391C27.3074 20.1409 27.6465 20.0004 28.0001 20.0004Z" fill="#3793FF"/>
</svg>
