<svg width="56" height="56" viewBox="0 0 56 56" fill="none" xmlns="http://www.w3.org/2000/svg">
<circle cx="28" cy="28" r="28" fill="#DAEBFF"/>
<path d="M36.8137 19.0113C35.305 16.425 33.24 15 31 15H25C22.76 15 20.695 16.425 19.1863 19.0113C17.7763 21.4275 17 24.625 17 28C17 31.375 17.7763 34.5725 19.1863 36.9888C20.695 39.575 22.76 41 25 41H31C33.24 41 35.305 39.575 36.8137 36.9888C38.2237 34.5725 39 31.375 39 28C39 24.625 38.2237 21.4275 36.8137 19.0113ZM36.9737 27H32.9737C32.8956 24.948 32.487 22.9219 31.7638 21H35.5875C36.3525 22.6725 36.8575 24.75 36.9737 27ZM34.3988 19H30.8075C30.3899 18.2753 29.8863 17.6038 29.3075 17H31C32.25 17 33.425 17.75 34.3988 19ZM19 28C19 22.0375 21.75 17 25 17C28.25 17 31 22.0375 31 28C31 33.9625 28.25 39 25 39C21.75 39 19 33.9625 19 28ZM31 39H29.3113C29.89 38.3962 30.3937 37.7247 30.8113 37H34.4025C33.425 38.25 32.25 39 31 39ZM35.5875 35H31.765C32.4883 33.0781 32.8968 31.052 32.975 29H36.975C36.8575 31.25 36.3525 33.3275 35.5875 35Z" fill="#3793FF"/>
</svg>
