<svg width="110" height="25" viewBox="0 0 110 25" fill="none" xmlns="http://www.w3.org/2000/svg">
<path d="M0.92 24V1.6H6.104L14.296 15.328V1.6H19.096V24H13.912L5.72 10.272V24H0.92ZM29.6475 24.416C28.1755 24.416 26.8315 24.0373 25.6155 23.28C24.4102 22.5227 23.4448 21.5093 22.7195 20.24C22.0048 18.96 21.6475 17.5467 21.6475 16C21.6475 14.8267 21.8555 13.7333 22.2715 12.72C22.6875 11.696 23.2582 10.8 23.9835 10.032C24.7195 9.25333 25.5728 8.64533 26.5435 8.208C27.5142 7.77067 28.5488 7.552 29.6475 7.552C31.1195 7.552 32.4582 7.93067 33.6635 8.688C34.8795 9.44533 35.8448 10.464 36.5595 11.744C37.2848 13.024 37.6475 14.4427 37.6475 16C37.6475 17.1627 37.4395 18.2507 37.0235 19.264C36.6075 20.2773 36.0315 21.1733 35.2955 21.952C34.5702 22.72 33.7222 23.3227 32.7515 23.76C31.7915 24.1973 30.7568 24.416 29.6475 24.416ZM29.6475 19.616C30.2555 19.616 30.7995 19.4507 31.2795 19.12C31.7702 18.7893 32.1542 18.352 32.4315 17.808C32.7088 17.2533 32.8475 16.6507 32.8475 16C32.8475 15.328 32.6982 14.7147 32.3995 14.16C32.1115 13.6053 31.7222 13.168 31.2315 12.848C30.7515 12.5173 30.2235 12.352 29.6475 12.352C29.0502 12.352 28.5062 12.5227 28.0155 12.864C27.5355 13.1947 27.1515 13.6373 26.8635 14.192C26.5862 14.7467 26.4475 15.3493 26.4475 16C26.4475 16.6827 26.5915 17.296 26.8795 17.84C27.1782 18.384 27.5675 18.816 28.0475 19.136C28.5382 19.456 29.0715 19.616 29.6475 19.616ZM55.069 13.776V24H50.269V15.12C50.269 14.6187 50.1463 14.1653 49.901 13.76C49.6557 13.344 49.3303 13.0187 48.925 12.784C48.5197 12.5387 48.0663 12.416 47.565 12.416C47.0637 12.416 46.605 12.5387 46.189 12.784C45.7837 13.0187 45.4583 13.344 45.213 13.76C44.9783 14.1653 44.861 14.6187 44.861 15.12V24H40.061L40.045 8H44.845L44.861 9.008C45.3943 8.54933 46.0023 8.192 46.685 7.936C47.3677 7.68 48.0877 7.552 48.845 7.552C49.997 7.552 51.0423 7.83467 51.981 8.4C52.9197 8.95467 53.6663 9.70133 54.221 10.64C54.7863 11.5787 55.069 12.624 55.069 13.776ZM64.9913 24.416C63.5193 24.416 62.1753 24.0373 60.9593 23.28C59.7539 22.5227 58.7886 21.5093 58.0633 20.24C57.3486 18.96 56.9913 17.5467 56.9913 16C56.9913 14.8267 57.1993 13.7333 57.6153 12.72C58.0313 11.696 58.6019 10.8 59.3273 10.032C60.0633 9.25333 60.9166 8.64533 61.8873 8.208C62.8579 7.77067 63.8926 7.552 64.9913 7.552C66.4633 7.552 67.8019 7.93067 69.0073 8.688C70.2233 9.44533 71.1886 10.464 71.9033 11.744C72.6286 13.024 72.9913 14.4427 72.9913 16C72.9913 17.1627 72.7833 18.2507 72.3673 19.264C71.9513 20.2773 71.3753 21.1733 70.6393 21.952C69.9139 22.72 69.0659 23.3227 68.0953 23.76C67.1353 24.1973 66.1006 24.416 64.9913 24.416ZM64.9913 19.616C65.5993 19.616 66.1433 19.4507 66.6233 19.12C67.1139 18.7893 67.4979 18.352 67.7753 17.808C68.0526 17.2533 68.1913 16.6507 68.1913 16C68.1913 15.328 68.0419 14.7147 67.7433 14.16C67.4553 13.6053 67.0659 13.168 66.5753 12.848C66.0953 12.5173 65.5673 12.352 64.9913 12.352C64.3939 12.352 63.8499 12.5227 63.3593 12.864C62.8793 13.1947 62.4953 13.6373 62.2073 14.192C61.9299 14.7467 61.7913 15.3493 61.7913 16C61.7913 16.6827 61.9353 17.296 62.2233 17.84C62.5219 18.384 62.9113 18.816 63.3913 19.136C63.8819 19.456 64.4153 19.616 64.9913 19.616ZM75.045 24V-1.90735e-06H79.845V24H75.045ZM90.3663 24.416C88.8943 24.416 87.5503 24.0373 86.3343 23.28C85.1289 22.5227 84.1636 21.504 83.4383 20.224C82.7236 18.944 82.3663 17.5307 82.3663 15.984C82.3663 14.8213 82.5743 13.7333 82.9903 12.72C83.4063 11.696 83.9769 10.8 84.7023 10.032C85.4383 9.25333 86.2916 8.64533 87.2623 8.208C88.2329 7.77067 89.2676 7.552 90.3663 7.552C91.6463 7.552 92.8143 7.83467 93.8703 8.4C94.9369 8.95467 95.8329 9.712 96.5583 10.672C97.2943 11.6213 97.8169 12.6933 98.1263 13.888C98.4356 15.0827 98.4676 16.3147 98.2222 17.584H87.5503C87.6996 17.9573 87.8969 18.2987 88.1423 18.608C88.3983 18.9067 88.7076 19.1467 89.0703 19.328C89.4436 19.5093 89.8756 19.6053 90.3663 19.616C90.8356 19.6267 91.2676 19.5253 91.6623 19.312C92.0676 19.0987 92.4196 18.8107 92.7183 18.448L97.6143 19.584C96.9636 21.0027 95.9929 22.1653 94.7023 23.072C93.4116 23.968 91.9663 24.416 90.3663 24.416ZM87.3743 14.064H93.3743C93.2249 13.6053 93.0009 13.2 92.7023 12.848C92.4036 12.496 92.0516 12.2187 91.6463 12.016C91.2516 11.8133 90.8249 11.712 90.3663 11.712C89.9183 11.712 89.4916 11.8133 89.0863 12.016C88.6916 12.2187 88.3449 12.496 88.0463 12.848C87.7583 13.2 87.5343 13.6053 87.3743 14.064ZM109.72 12.8H107V24H102.2V12.8H100.12V8H102.2V2.976H107V8H109.72V12.8Z" fill="#3793FF"/>
<path d="M0.92 24V1.6H6.104L14.296 15.328V1.6H19.096V24H13.912L5.72 10.272V24H0.92ZM29.6475 24.416C28.1755 24.416 26.8315 24.0373 25.6155 23.28C24.4102 22.5227 23.4448 21.5093 22.7195 20.24C22.0048 18.96 21.6475 17.5467 21.6475 16C21.6475 14.8267 21.8555 13.7333 22.2715 12.72C22.6875 11.696 23.2582 10.8 23.9835 10.032C24.7195 9.25333 25.5728 8.64533 26.5435 8.208C27.5142 7.77067 28.5488 7.552 29.6475 7.552C31.1195 7.552 32.4582 7.93067 33.6635 8.688C34.8795 9.44533 35.8448 10.464 36.5595 11.744C37.2848 13.024 37.6475 14.4427 37.6475 16C37.6475 17.1627 37.4395 18.2507 37.0235 19.264C36.6075 20.2773 36.0315 21.1733 35.2955 21.952C34.5702 22.72 33.7222 23.3227 32.7515 23.76C31.7915 24.1973 30.7568 24.416 29.6475 24.416ZM29.6475 19.616C30.2555 19.616 30.7995 19.4507 31.2795 19.12C31.7702 18.7893 32.1542 18.352 32.4315 17.808C32.7088 17.2533 32.8475 16.6507 32.8475 16C32.8475 15.328 32.6982 14.7147 32.3995 14.16C32.1115 13.6053 31.7222 13.168 31.2315 12.848C30.7515 12.5173 30.2235 12.352 29.6475 12.352C29.0502 12.352 28.5062 12.5227 28.0155 12.864C27.5355 13.1947 27.1515 13.6373 26.8635 14.192C26.5862 14.7467 26.4475 15.3493 26.4475 16C26.4475 16.6827 26.5915 17.296 26.8795 17.84C27.1782 18.384 27.5675 18.816 28.0475 19.136C28.5382 19.456 29.0715 19.616 29.6475 19.616ZM55.069 13.776V24H50.269V15.12C50.269 14.6187 50.1463 14.1653 49.901 13.76C49.6557 13.344 49.3303 13.0187 48.925 12.784C48.5197 12.5387 48.0663 12.416 47.565 12.416C47.0637 12.416 46.605 12.5387 46.189 12.784C45.7837 13.0187 45.4583 13.344 45.213 13.76C44.9783 14.1653 44.861 14.6187 44.861 15.12V24H40.061L40.045 8H44.845L44.861 9.008C45.3943 8.54933 46.0023 8.192 46.685 7.936C47.3677 7.68 48.0877 7.552 48.845 7.552C49.997 7.552 51.0423 7.83467 51.981 8.4C52.9197 8.95467 53.6663 9.70133 54.221 10.64C54.7863 11.5787 55.069 12.624 55.069 13.776ZM64.9913 24.416C63.5193 24.416 62.1753 24.0373 60.9593 23.28C59.7539 22.5227 58.7886 21.5093 58.0633 20.24C57.3486 18.96 56.9913 17.5467 56.9913 16C56.9913 14.8267 57.1993 13.7333 57.6153 12.72C58.0313 11.696 58.6019 10.8 59.3273 10.032C60.0633 9.25333 60.9166 8.64533 61.8873 8.208C62.8579 7.77067 63.8926 7.552 64.9913 7.552C66.4633 7.552 67.8019 7.93067 69.0073 8.688C70.2233 9.44533 71.1886 10.464 71.9033 11.744C72.6286 13.024 72.9913 14.4427 72.9913 16C72.9913 17.1627 72.7833 18.2507 72.3673 19.264C71.9513 20.2773 71.3753 21.1733 70.6393 21.952C69.9139 22.72 69.0659 23.3227 68.0953 23.76C67.1353 24.1973 66.1006 24.416 64.9913 24.416ZM64.9913 19.616C65.5993 19.616 66.1433 19.4507 66.6233 19.12C67.1139 18.7893 67.4979 18.352 67.7753 17.808C68.0526 17.2533 68.1913 16.6507 68.1913 16C68.1913 15.328 68.0419 14.7147 67.7433 14.16C67.4553 13.6053 67.0659 13.168 66.5753 12.848C66.0953 12.5173 65.5673 12.352 64.9913 12.352C64.3939 12.352 63.8499 12.5227 63.3593 12.864C62.8793 13.1947 62.4953 13.6373 62.2073 14.192C61.9299 14.7467 61.7913 15.3493 61.7913 16C61.7913 16.6827 61.9353 17.296 62.2233 17.84C62.5219 18.384 62.9113 18.816 63.3913 19.136C63.8819 19.456 64.4153 19.616 64.9913 19.616ZM75.045 24V-1.90735e-06H79.845V24H75.045ZM90.3663 24.416C88.8943 24.416 87.5503 24.0373 86.3343 23.28C85.1289 22.5227 84.1636 21.504 83.4383 20.224C82.7236 18.944 82.3663 17.5307 82.3663 15.984C82.3663 14.8213 82.5743 13.7333 82.9903 12.72C83.4063 11.696 83.9769 10.8 84.7023 10.032C85.4383 9.25333 86.2916 8.64533 87.2623 8.208C88.2329 7.77067 89.2676 7.552 90.3663 7.552C91.6463 7.552 92.8143 7.83467 93.8703 8.4C94.9369 8.95467 95.8329 9.712 96.5583 10.672C97.2943 11.6213 97.8169 12.6933 98.1263 13.888C98.4356 15.0827 98.4676 16.3147 98.2222 17.584H87.5503C87.6996 17.9573 87.8969 18.2987 88.1423 18.608C88.3983 18.9067 88.7076 19.1467 89.0703 19.328C89.4436 19.5093 89.8756 19.6053 90.3663 19.616C90.8356 19.6267 91.2676 19.5253 91.6623 19.312C92.0676 19.0987 92.4196 18.8107 92.7183 18.448L97.6143 19.584C96.9636 21.0027 95.9929 22.1653 94.7023 23.072C93.4116 23.968 91.9663 24.416 90.3663 24.416ZM87.3743 14.064H93.3743C93.2249 13.6053 93.0009 13.2 92.7023 12.848C92.4036 12.496 92.0516 12.2187 91.6463 12.016C91.2516 11.8133 90.8249 11.712 90.3663 11.712C89.9183 11.712 89.4916 11.8133 89.0863 12.016C88.6916 12.2187 88.3449 12.496 88.0463 12.848C87.7583 13.2 87.5343 13.6053 87.3743 14.064ZM109.72 12.8H107V24H102.2V12.8H100.12V8H102.2V2.976H107V8H109.72V12.8Z" fill="url(#paint0_linear_2472_3538)"/>
<defs>
<linearGradient id="paint0_linear_2472_3538" x1="-1" y1="13" x2="133.614" y2="-16.7484" gradientUnits="userSpaceOnUse">
<stop stop-color="#00203A"/>
<stop offset="1" stop-color="#3793FF"/>
</linearGradient>
</defs>
</svg>
